<svg viewBox="0 0 89 23" fill="none" xmlns="http://www.w3.org/2000/svg">
<path
  d="M15.889 6.051a.66.66 0 0 1-.236-.235.627.627 0 0 1-.085-.315C15.248 2.444 12.557 0 9.289 0S3.267 2.383 3.011 5.501a.725.725 0 0 1-.32.55C1.089 7.151 0 8.925 0 10.941c0 2.75 1.986 5.134 4.677 5.807.449.123.962.183 1.089.06.321-.183.77-1.71.577-2.016-.128-.184-.513-.367-1.025-.49-1.602-.427-2.756-1.772-2.756-3.422 0-.917.385-1.712.962-2.384.26-.31.588-.56.961-.734A1.97 1.97 0 0 0 5.574 5.99c0-.367.064-.734.192-1.1A3.722 3.722 0 0 1 9.29 2.445a3.72 3.72 0 0 1 3.524 2.445c.128.367.193.734.193 1.1 0 .733.383 1.405 1.089 1.772.384.184.64.428.961.734.615.656.957 1.504.962 2.384a3.47 3.47 0 0 1-1.089 2.506 3.815 3.815 0 0 1-2.627 1.04c-2.371 0-4.229 1.834-4.229 4.095v2.323c0 .427.064.916.192 1.038.257.246 1.923.246 2.178 0 .129-.122.193-.61.193-1.038V18.46c0-.856.769-1.59 1.666-1.59 3.46 0 6.279-2.69 6.279-5.99-.002-1.956-1.092-3.729-2.693-4.829z"
  fill="#72EF36"/>
<path
  d="M42.924 8.446h-1.703c-.136 0-.204.068-.204.204v3.269c0 1.77-.613 2.656-1.907 2.656-.476 0-.885-.136-1.157-.477-.273-.34-.409-.75-.409-1.293V8.718c0-.136-.068-.204-.204-.204h-1.703c-.136 0-.204.068-.204.204v4.563c0 .954.272 1.77.885 2.384.545.613 1.294.885 2.248.885.953 0 1.702-.272 2.315-.817.068-.068.136 0 .136.068v.272c0 .136.068.204.205.204h1.702c.136 0 .204-.068.204-.204V8.582c0-.068-.068-.136-.204-.136zm11.645-.272c-1.226 0-2.179.408-2.86 1.294-.613-.818-1.43-1.294-2.588-1.294-.885 0-1.634.272-2.179.749-.068.067-.136 0-.136-.068v-.273c0-.136-.068-.204-.205-.204h-1.634c-.136 0-.204.068-.204.204v7.424c0 .136.068.204.204.204h1.703c.136 0 .204-.068.204-.204v-3.542c0-.817.136-1.362.476-1.77.341-.41.75-.613 1.294-.613.409 0 .818.136 1.09.476.273.273.409.68.409 1.226v4.223c0 .136.068.204.204.204h1.703c.136 0 .204-.068.204-.204v-3.542c0-.817.136-1.362.476-1.77.341-.41.75-.613 1.295-.613.408 0 .817.136 1.089.476.273.273.409.68.409 1.226v4.223c0 .136.068.204.204.204h1.634c.137 0 .205-.068.205-.204v-4.7c0-.953-.273-1.702-.886-2.247-.612-.545-1.293-.885-2.111-.885zm9.943 6.197c-.068-.136-.136-.136-.272-.136a2.34 2.34 0 0 1-1.09.272c-.749 0-1.158-.477-1.158-1.362v-2.86c0-.136.068-.204.205-.204h2.179c.136 0 .204-.068.204-.204V8.582c0-.136-.068-.204-.204-.204h-2.179c-.137 0-.205-.068-.205-.204V6.199c0-.136-.067-.204-.204-.204h-1.702c-.137 0-.204.068-.204.204v1.975c0 .136-.068.204-.205.204h-1.293c-.137 0-.205.068-.205.204v1.295c0 .136.068.204.205.204h1.293c.137 0 .205.068.205.204v3.064c0 1.022.272 1.84.817 2.316.545.545 1.294.75 2.247.75.613 0 1.226-.137 1.907-.478.068-.068.136-.136.068-.204l-.409-1.362zm7.151-6.061h-.408c-1.09 0-1.907.408-2.588 1.294-.068.068-.136 0-.136-.068V8.65c0-.136-.137-.272-.273-.272h-1.566c-.136 0-.204.068-.204.204v7.423c0 .137.068.205.204.205h1.702c.137 0 .204-.068.204-.205V13.69c0-2.248.954-3.337 2.793-3.337h.272c.068 0 .204-.068.204-.204l.068-1.635a.928.928 0 0 0-.272-.204zm4.836-.136c-1.158 0-2.112.408-2.861 1.157-.749.75-1.158 1.77-1.158 2.997 0 1.226.409 2.18 1.158 2.928.749.749 1.703 1.158 2.861 1.158.885 0 1.634-.204 2.315-.613.613-.34 1.022-.885 1.362-1.566.068-.137 0-.205-.136-.273l-1.498-.34c-.068 0-.136 0-.204.068-.409.613-1.022.953-1.839.953-.477 0-.885-.136-1.226-.476-.34-.273-.545-.681-.681-1.226 0-.068 0-.137.068-.137h5.788v-.68c-.068-1.158-.476-2.112-1.226-2.861-.748-.68-1.634-1.09-2.723-1.09zm1.702 3.268h-3.473c-.068 0-.136-.068-.068-.136.136-.408.34-.68.681-.953.341-.272.749-.34 1.158-.34a2.3 2.3 0 0 1 1.158.34c.272.204.544.545.68.953a.146.146 0 0 1-.136.136zm5.448 1.43h5.789v-.68c-.068-1.158-.477-2.112-1.226-2.86-.749-.75-1.703-1.09-2.724-1.09-1.158 0-2.111.408-2.86 1.158-.75.748-1.158 1.77-1.158 2.996s.408 2.179 1.158 2.928c.749.749 1.702 1.158 2.86 1.158.885 0 1.634-.204 2.315-.613.613-.34 1.022-.885 1.362-1.566.069-.137 0-.205-.136-.273l-1.498-.34c-.068 0-.136 0-.204.068-.409.613-1.021.953-1.839.953-.476 0-.885-.136-1.226-.476-.34-.273-.545-.681-.681-1.227-.068-.067 0-.136.068-.136zm0-1.566c.137-.408.341-.68.682-.953.34-.272.749-.34 1.157-.34.409 0 .818.135 1.158.34.272.204.545.545.681.953 0 .068 0 .136-.068.136h-3.473c-.137 0-.205-.068-.137-.136zM34.002 10.08h-5.38c-.136 0-.204.068-.204.205v1.566c0 .136.068.204.204.204h3.405c.068 0 .136.068.068.136-.204.68-.545 1.226-1.089 1.635-.545.408-1.226.612-2.043.612-.954 0-1.771-.34-2.452-1.021-.681-.681-1.022-1.498-1.022-2.452 0-.953.341-1.77.954-2.451.613-.682 1.498-1.022 2.451-1.022 1.226 0 2.18.477 2.861 1.362.068.068.136.068.272.068l1.431-.953c.067-.068.136-.204.067-.273a3.93 3.93 0 0 0-1.43-1.362c-.885-.545-1.975-.817-3.064-.817-1.567 0-2.861.545-3.882 1.566-1.09 1.022-1.567 2.316-1.567 3.882 0 1.566.545 2.86 1.635 3.882 1.09 1.02 2.384 1.566 3.95 1.566 1.566 0 2.792-.545 3.814-1.566 1.021-1.021 1.498-2.316 1.498-3.882v-.75c-.272 0-.341-.135-.477-.135z"
  fill="#3C3241"/>
</svg>
