<svg viewBox="99 0 103 23" fill="none" xmlns="http://www.w3.org/2000/svg">
  <path
    d="M135.872 18.427c-1.58 0-2.78-.458-3.602-1.375-.821-.916-1.232-2.232-1.232-3.945 0-1.746.428-3.087 1.289-4.026.859-.938 2.1-1.407 3.724-1.407 1.102 0 2.093.256 2.974.664l-1.257 1.482c-.899-.275-1.126-.307-1.736-.307-1.807 0-2.71 1.191-2.71 3.575 0 1.163.225 2.037.676 2.622.449.585 1.109.877 1.978.877a5.7 5.7 0 0 0 2.804-.73v1.922c-.397.232-.82.397-1.27.498-.45.1-.996.15-1.638.15zm6.23-11.37c.085-.09.159-.156.24-.236V3.64l-2.2 1.02V9.37l.209-.26c.774-.953 1.357-1.639 1.751-2.055zm2.949 5.262 4.202-4.457h-2.558l-3.154 3.34-1.256 1.557h-.057l.114-1.998v-.558l-2.2 2.524v5.512h2.2v-3.556l1.217-.995 3.352 4.55h2.606l-4.466-5.919zm-39.06-6.07c-1.298 0-2.317.456-3.06 1.37-.742.912-1.113 2.173-1.113 3.78 0 1.683.357 2.956 1.071 3.82.715.862 1.748 1.293 3.102 1.293.585 0 1.152-.058 1.699-.173a19.914 19.914 0 0 0 1.709-.446v1.924c-1.083.405-2.31.61-3.682.61-2.021 0-3.572-.609-4.656-1.825-1.082-1.216-1.623-2.957-1.623-5.222 0-1.426.263-2.674.789-3.744.525-1.07 1.285-1.888 2.28-2.458.994-.57 2.162-.853 3.503-.853 1.41 0 2.713.294 3.908.881l-.811 1.867a12.16 12.16 0 0 0-1.478-.577 5.354 5.354 0 0 0-1.638-.248zm13.891 11.99h-2.229v-6.38c0-.8-.161-1.399-.486-1.793-.324-.394-.838-.59-1.543-.59-.932 0-1.617.276-2.054.83-.438.554-.657 1.481-.657 2.782v5.151h-2.219V4.66l2.219-1.02v3.706a17.1 17.1 0 0 1-.114 1.905h.142c.302-.5.739-.903 1.261-1.164.539-.275 1.166-.413 1.884-.413 2.53 0 3.795 1.268 3.795 3.8l.001 6.766zm5.721-8.895c-.705 0-1.27.223-1.694.666-.425.445-.678 1.092-.761 1.943h4.74c-.013-.857-.221-1.505-.623-1.947-.402-.44-.957-.662-1.662-.662zm.406 9.083c-1.624 0-2.894-.47-3.81-1.413-.916-.94-1.373-2.237-1.373-3.888 0-1.696.424-3.028 1.274-3.997.851-.97 2.018-1.455 3.503-1.455 1.379 0 2.468.416 3.268 1.25.8.831 1.199 1.975 1.199 3.433v1.191h-6.958c.032 1.007.305 1.782.821 2.323.517.54 1.243.811 2.182.811.616 0 1.191-.057 1.723-.173a9.117 9.117 0 0 0 1.714-.577v1.792a6.88 6.88 0 0 1-1.643.544 10.28 10.28 0 0 1-1.9.16z"
    fill="#EB1F40"/>
  <path
    d="M153.269 16.662c.805 0 1.453-.224 1.94-.67.488-.449.731-1.076.731-1.883v-.9l-1.34.056c-1.045.038-1.805.211-2.28.52-.475.31-.713.785-.713 1.423 0 .462.139.82.415 1.074.277.253.693.38 1.247.38zm3.305 1.5-.444-1.444h-.076c-.503.632-1.01 1.061-1.52 1.29-.51.23-1.165.343-1.964.343-1.026 0-1.827-.275-2.403-.826-.576-.55-.863-1.329-.863-2.336 0-1.07.4-1.877 1.199-2.42.799-.545 2.017-.842 3.653-.893l1.804-.056v-.554c0-.663-.155-1.159-.467-1.487-.312-.329-.796-.493-1.45-.493-.535 0-1.048.08-1.539.235-.491.156-.963.34-1.417.553l-.717-1.576a7.781 7.781 0 0 1 1.86-.67 8.633 8.633 0 0 1 1.907-.23c1.329 0 2.331.287 3.008.862.676.575 1.015 1.48 1.015 2.712v6.99h-1.586z"
    fill="#EB1F40"/>
  <path
    d="M163.91 16.643a5.425 5.425 0 0 0 1.624-.253v1.66a4.443 4.443 0 0 1-.949.268c-.397.073-.799.11-1.203.108-2.103 0-3.155-1.1-3.155-3.303V9.531h-1.425v-.976l1.529-.806.756-2.195h1.369v2.308h2.973v1.67h-2.973v5.554c0 .531.133.924.401 1.177.268.254.619.38 1.053.38zm7.693-8.969c.447 0 .815.03 1.105.094l-.218 2.055a4.222 4.222 0 0 0-.982-.113c-.887 0-1.607.288-2.158.864-.55.575-.826 1.323-.826 2.242v5.424h-2.219V7.861h1.738l.292 1.83h.114c.346-.62.797-1.11 1.355-1.473a3.241 3.241 0 0 1 1.799-.544zm4.703 9.064c.805 0 1.453-.224 1.94-.67.488-.448.732-1.076.732-1.882v-.9l-1.341.055c-1.046.038-1.805.211-2.28.52-.476.31-.714.785-.714 1.423 0 .462.139.82.415 1.074.279.253.695.38 1.248.38zm3.305 1.501-.444-1.444h-.076c-.503.631-1.01 1.06-1.519 1.29-.511.23-1.166.342-1.964.342-1.027 0-1.827-.275-2.404-.826-.576-.55-.863-1.328-.863-2.336 0-1.07.4-1.877 1.199-2.42.799-.545 2.018-.842 3.653-.892l1.804-.057v-.554c0-.663-.156-1.159-.467-1.487-.312-.329-.795-.493-1.449-.493a5.032 5.032 0 0 0-1.539.235c-.492.156-.964.341-1.418.553l-.717-1.576a7.77 7.77 0 0 1 1.861-.67 8.62 8.62 0 0 1 1.907-.23c1.328 0 2.33.287 3.007.862.676.575 1.015 1.48 1.015 2.712v6.99l-1.586.001zm7.28-1.596c.914 0 1.577-.254 1.993-.764.415-.51.629-1.337.642-2.482v-.309c0-1.308-.214-2.237-.642-2.786-.428-.55-1.099-.826-2.011-.826-.781 0-1.382.314-1.804.943-.421.63-.633 1.525-.633 2.688 0 1.151.205 2.028.614 2.631.41.604 1.023.905 1.841.905zm-.594 1.784c-1.304 0-2.32-.47-3.05-1.408-.73-.939-1.096-2.255-1.096-3.95 0-1.7.37-3.026 1.11-3.974.739-.947 1.764-1.422 3.073-1.422 1.372 0 2.417.504 3.135 1.51h.114c-.107-.743-.16-1.33-.16-1.763V4.658l2.227-1.019v14.6h-1.738l-.387-1.36h-.103c-.711 1.031-1.753 1.548-3.125 1.548zm11.084-9.083c-.705 0-1.27.223-1.694.666-.425.445-.678 1.092-.76 1.943h4.74c-.013-.857-.221-1.505-.623-1.947-.404-.44-.957-.662-1.663-.662zm.406 9.083c-1.623 0-2.894-.47-3.81-1.413-.916-.94-1.373-2.237-1.373-3.888 0-1.696.424-3.028 1.275-3.997.849-.97 2.017-1.455 3.502-1.455 1.379 0 2.468.416 3.268 1.25.799.831 1.199 1.975 1.199 3.433v1.191h-6.959c.032 1.007.306 1.782.822 2.323.516.54 1.243.811 2.181.811.617 0 1.191-.057 1.723-.173a9.074 9.074 0 0 0 1.714-.577v1.792a6.857 6.857 0 0 1-1.642.544c-.556.105-1.189.16-1.9.16zm-61.839-7.444a.534.534 0 0 0-.369-.019c-.834.28-1.125.8-1.048 1.542.133 1.27.341 1.786.429 2.066.108.34.537.75.985.75.342 0 .838-.045 1.666-.939l8.394-9.465c-.039.032.006.007-.005.006l.005-.006a8.983 8.983 0 0 0-1.697.097c-.36.07-.65.21-.909.356-.734.42-6.585 7.305-6.742 7.305-.271 0-.339-.685-.403-1.144-.031-.217-.094-.348-.157-.422a.49.49 0 0 0-.149-.127z"
    fill="#0058A2"/>
</svg>
